<svg xmlns="http://www.w3.org/2000/svg" viewBox="0 0 47 55" width="47" height="55">
	<defs>
		<clipPath clipPathUnits="userSpaceOnUse" id="cp1">
			<path d="M-219 -825L1701 -825L1701 4648L-219 4648Z" />
		</clipPath>
	</defs>
	<style>
		tspan { white-space:pre }
		.shp0 { fill: #ffffff } 
	</style>
	<g id="Food" clip-path="url(#cp1)">
		<g id="Header">
			<g id="Content">
				<path id="Shape 1" class="shp0" d="M39.07 29.13C39.02 22.68 44.41 19.54 44.65 19.4C41.59 15.01 36.85 14.39 35.19 14.34C31.21 13.92 27.35 16.7 25.32 16.7C23.26 16.7 20.12 14.39 16.77 14.45C12.45 14.52 8.38 16.99 6.18 20.84C1.6 28.68 5.01 40.21 9.4 46.55C11.61 49.65 14.16 53.12 17.54 53C20.82 52.87 22.06 50.92 26.01 50.92C29.95 50.92 31.1 53 34.53 52.92C38.07 52.87 40.27 49.81 42.41 46.67C44.94 43.13 45.96 39.61 46 39.43C45.91 39.4 39.14 36.84 39.07 29.13M32.6 10.18C34.37 8 35.57 5.03 35.24 2C32.69 2.11 29.48 3.75 27.64 5.89C26.01 7.78 24.56 10.86 24.92 13.76C27.8 13.98 30.76 12.32 32.6 10.18" />
			</g>
		</g>
	</g>
</svg>